<?xml version="1.0" encoding="UTF-8"?>




<svg xmlns="http://www.w3.org/2000/svg" xmlns:xlink="http://www.w3.org/1999/xlink" width="374.161875pt" height="71.368594pt" viewBox="0 0 374.161875 71.368594" version="1.2">

<g id="surface1" xmlns:ns0="http://www.iki.fi/pav/software/textext/"
xmlns:ns1="https://www.texmacs.org/" ns1:texmacscode="&lt;\\equation*&gt;\n  &lt;tformat|&lt;table|&lt;row|&lt;cell|&lt;frac|1|1+&lt;frac|1|1+&lt;frac|2|1+&lt;frac|3|1+&lt;frac|4|1+&lt;frac|5|1+&lt;frac|6|1+&lt;frac|7|1+\\&lt;ddots\\&gt;&gt;&gt;&gt;&gt;&gt;&gt;&gt;&gt;&gt;|&lt;cell|=&gt;|&lt;cell|&lt;sqrt|&lt;frac|\\&lt;pi\\&gt;*&lt;with|color|blue|e&gt;|2&gt;&gt;*&lt;around*|(|1-erf\n  &lt;tfrac|1|&lt;sqrt|2&gt;&gt;|)&gt;=&lt;sqrt|e&gt;*&lt;around*|{|&lt;sqrt|&lt;frac|\\&lt;pi\\&gt;|2&gt;&gt;-&lt;big|sum&gt;&lt;rsub|n=0&gt;&lt;rsup|\\&lt;infty\\&gt;&gt;&lt;frac|(-1)&lt;rsup|n&gt;|2&lt;rsup|n&gt;*n!*&lt;around|(|2*n+1|)&gt;&gt;|}&gt;&gt;&gt;&gt;&gt;\n&lt;/equation*&gt;" ns1:texmacsstyle="&lt;\\collection&gt;\n  &lt;associate|full-screen-mode|false&gt;\n&lt;/collection&gt;" ns1:texmacsbaseline="0.468450539562439" ns0:text="\\[ \\begin{array}{lll}\n     \\frac{1}{1 + \\frac{1}{1 + \\frac{2}{1 + \\frac{3}{1 + \\frac{4}{1 +\n     \\frac{5}{1 + \\frac{6}{1 + \\frac{7}{1 + \\ddots}}}}}}}} &amp; = &amp;\n     \\sqrt{\\frac{\\pi \\tmcolor{blue}{e}}{2}}  \\left( 1 - \\tmop{erf}\n     \\tfrac{1}{\\sqrt{2}} \\right) = \\sqrt{e}  \\left\\{ \\sqrt{\\frac{\\pi}{2}} -\n     \\sum_{n = 0}^{\\infty} \\frac{(- 1)^n}{2^n n! (2 n + 1)} \\right\\}\n   \\end{array} \\]"
ns0:preamble="texmacs_latex.sty">
<defs>
<g>

<symbol overflow="visible" id="tmb87c6f-1">
<path style="stroke:none;" d="M 2.90625 -6.34375 C 2.90625 -6.578125 2.90625 -6.59375 2.6875 -6.59375 C 2.078125 -5.96875 1.203125 -5.96875 0.875 -5.96875 L 0.875 -5.65625 C 1.078125 -5.65625 1.671875 -5.65625 2.171875 -5.90625 L 2.171875 -0.78125 C 2.171875 -0.421875 2.15625 -0.3125 1.265625 -0.3125 L 0.9375 -0.3125 L 0.9375 0 C 1.28125 -0.03125 2.15625 -0.03125 2.546875 -0.03125 C 2.9375 -0.03125 3.796875 -0.03125 4.15625 0 L 4.15625 -0.3125 L 3.828125 -0.3125 C 2.9375 -0.3125 2.90625 -0.421875 2.90625 -0.78125 Z M 2.90625 -6.34375 "/>
</symbol>
<symbol
overflow="visible" id="tmb87c6f-2">
<path style="stroke:none;" d="M 4.046875 -2.28125 L 6.8125 -2.28125 C 6.953125 -2.28125 7.140625 -2.28125 7.140625 -2.484375 C 7.140625 -2.671875 6.953125 -2.671875 6.8125 -2.671875 L 4.046875 -2.671875 L 4.046875 -5.453125 C 4.046875 -5.59375 4.046875 -5.78125 3.859375 -5.78125 C 3.65625 -5.78125 3.65625 -5.59375 3.65625 -5.453125 L 3.65625 -2.671875 L 0.875 -2.671875 C 0.75 -2.671875 0.5625 -2.671875 0.5625 -2.484375 C 0.5625 -2.28125 0.75 -2.28125 0.875 -2.28125 L 3.65625 -2.28125 L 3.65625 0.5 C 3.65625 0.640625 3.65625 0.828125 3.859375 0.828125 C 4.046875 0.828125 4.046875 0.640625 4.046875 0.5 Z M 4.046875 -2.28125 "/>
</symbol>
<symbol overflow="visible" id="tmb87c6f-3">
<path style="stroke:none;"
d="M 6.8125 -3.234375 C 6.953125 -3.234375 7.140625 -3.234375 7.140625 -3.4375 C 7.140625 -3.640625 6.953125 -3.640625 6.8125 -3.640625 L 0.875 -3.640625 C 0.75 -3.640625 0.5625 -3.640625 0.5625 -3.4375 C 0.5625 -3.234375 0.75 -3.234375 0.890625 -3.234375 Z M 6.8125 -1.3125 C 6.953125 -1.3125 7.140625 -1.3125 7.140625 -1.515625 C 7.140625 -1.71875 6.953125 -1.71875 6.8125 -1.71875 L 0.890625 -1.71875 C 0.75 -1.71875 0.5625 -1.71875 0.5625 -1.515625 C 0.5625 -1.3125 0.75 -1.3125 0.875 -1.3125 Z M 6.8125 -1.3125 "/>
</symbol>
<symbol overflow="visible" id="tmb87c6f-4">
<path style="stroke:none;" d="M 4.453125 -1.71875 L 4.203125 -1.71875 C 4.15625 -1.421875 4.078125 -0.984375 3.984375 -0.84375 C 3.90625 -0.765625 3.265625 -0.765625 3.046875 -0.765625 L 1.265625 -0.765625 L 2.3125 -1.78125 C 3.859375 -3.15625 4.453125 -3.6875 4.453125 -4.671875 C 4.453125 -5.8125 3.5625 -6.59375 2.34375 -6.59375 C 1.234375 -6.59375 0.5 -5.6875 0.5 -4.796875 C 0.5 -4.25 0.984375 -4.25 1.015625 -4.25 C 1.1875 -4.25 1.53125 -4.375 1.53125 -4.78125 C 1.53125 -5.03125 1.359375 -5.296875 1.015625 -5.296875 C 0.9375 -5.296875 0.90625 -5.296875 0.875 -5.28125 C 1.109375 -5.921875 1.640625 -6.296875 2.21875 -6.296875 C 3.125 -6.296875 3.546875 -5.484375 3.546875 -4.671875 C 3.546875 -3.890625 3.046875 -3.09375 2.5 -2.484375 L 0.609375 -0.359375 C 0.5 -0.25 0.5 -0.234375 0.5 0 L 4.171875 0 Z M 4.453125 -1.71875 "/>
</symbol>
<symbol
overflow="visible" id="tmb87c6f-5">
<path style="stroke:none;" d="M 3.28125 2.375 C 3.28125 2.34375 3.28125 2.328125 3.109375 2.15625 C 1.875 0.90625 1.5625 -0.953125 1.5625 -2.484375 C 1.5625 -4.203125 1.9375 -5.921875 3.15625 -7.15625 C 3.28125 -7.28125 3.28125 -7.296875 3.28125 -7.328125 C 3.28125 -7.40625 3.234375 -7.4375 3.1875 -7.4375 C 3.078125 -7.4375 2.1875 -6.75 1.609375 -5.5 C 1.09375 -4.40625 0.984375 -3.3125 0.984375 -2.484375 C 0.984375 -1.703125 1.09375 -0.5 1.640625 0.609375 C 2.234375 1.828125 3.078125 2.484375 3.1875 2.484375 C 3.234375 2.484375 3.28125 2.453125 3.28125 2.375 Z M 3.28125 2.375 "/>
</symbol>
<symbol overflow="visible" id="tmb87c6f-6">
<path style="stroke:none;"
d="M 2.859375 -2.484375 C 2.859375 -3.25 2.75 -4.453125 2.203125 -5.5625 C 1.609375 -6.78125 0.765625 -7.4375 0.65625 -7.4375 C 0.609375 -7.4375 0.5625 -7.390625 0.5625 -7.328125 C 0.5625 -7.296875 0.5625 -7.28125 0.75 -7.109375 C 1.71875 -6.125 2.28125 -4.546875 2.28125 -2.484375 C 2.28125 -0.78125 1.921875 0.953125 0.6875 2.203125 C 0.5625 2.328125 0.5625 2.34375 0.5625 2.375 C 0.5625 2.4375 0.609375 2.484375 0.65625 2.484375 C 0.765625 2.484375 1.65625 1.796875 2.234375 0.546875 C 2.75 -0.546875 2.859375 -1.640625 2.859375 -2.484375 Z M 2.859375 -2.484375 "/>
</symbol>
<symbol overflow="visible" id="tmb87c6f-7">
<path style="stroke:none;" d="M 1.90625 -6.59375 C 1.90625 -6.921875 1.640625 -7.09375 1.375 -7.09375 C 1.125 -7.09375 0.859375 -6.921875 0.859375 -6.59375 L 1.234375 -2.078125 C 1.25 -1.9375 1.265625 -1.859375 1.375 -1.859375 C 1.46875 -1.859375 1.5 -1.90625 1.515625 -2.078125 Z M 1.90625 -0.53125 C 1.90625 -0.8125 1.671875 -1.046875 1.375 -1.046875 C 1.09375 -1.046875 0.859375 -0.8125 0.859375 -0.53125 C 0.859375 -0.234375 1.09375 0 1.375 0 C 1.671875 0 1.90625 -0.234375 1.90625 -0.53125 Z M 1.90625 -0.53125 "/>
</symbol>

<symbol
overflow="visible" id="tmb87c6f-9">
<path style="stroke:none;" d="M 2.328125 -4.40625 C 2.328125 -4.59375 2.3125 -4.609375 2.109375 -4.609375 C 1.671875 -4.171875 1.046875 -4.15625 0.75 -4.15625 L 0.75 -3.90625 C 0.921875 -3.90625 1.375 -3.90625 1.765625 -4.109375 L 1.765625 -0.5625 C 1.765625 -0.34375 1.765625 -0.25 1.0625 -0.25 L 0.8125 -0.25 L 0.8125 0 C 0.921875 0 1.78125 -0.03125 2.046875 -0.03125 C 2.25 -0.03125 3.125 0 3.28125 0 L 3.28125 -0.25 L 3.015625 -0.25 C 2.328125 -0.25 2.328125 -0.34375 2.328125 -0.5625 Z M 2.328125 -4.40625 "/>
</symbol>
<symbol overflow="visible" id="tmb87c6f-10">
<path style="stroke:none;"
d="M 3.21875 -1.5625 L 5.328125 -1.5625 C 5.421875 -1.5625 5.59375 -1.5625 5.59375 -1.734375 C 5.59375 -1.90625 5.4375 -1.90625 5.328125 -1.90625 L 3.21875 -1.90625 L 3.21875 -4.03125 C 3.21875 -4.125 3.21875 -4.296875 3.046875 -4.296875 C 2.875 -4.296875 2.875 -4.140625 2.875 -4.03125 L 2.875 -1.90625 L 0.75 -1.90625 C 0.65625 -1.90625 0.484375 -1.90625 0.484375 -1.734375 C 0.484375 -1.5625 0.640625 -1.5625 0.75 -1.5625 L 2.875 -1.5625 L 2.875 0.5625 C 2.875 0.65625 2.875 0.8125 3.03125 0.8125 C 3.21875 0.8125 3.21875 0.65625 3.21875 0.5625 Z M 3.21875 -1.5625 "/>
</symbol>
<symbol overflow="visible" id="tmb87c6f-11">
<path style="stroke:none;" d="M 3.5 -1.265625 L 3.265625 -1.265625 C 3.25 -1.109375 3.171875 -0.703125 3.09375 -0.625 C 3.03125 -0.59375 2.5 -0.59375 2.40625 -0.59375 L 1.125 -0.59375 C 1.859375 -1.234375 2.09375 -1.421875 2.515625 -1.75 C 3.03125 -2.171875 3.5 -2.59375 3.5 -3.25 C 3.5 -4.09375 2.765625 -4.609375 1.875 -4.609375 C 1.015625 -4.609375 0.4375 -4 0.4375 -3.359375 C 0.4375 -3.015625 0.734375 -2.96875 0.8125 -2.96875 C 0.96875 -2.96875 1.171875 -3.09375 1.171875 -3.34375 C 1.171875 -3.46875 1.125 -3.71875 0.765625 -3.71875 C 0.984375 -4.203125 1.453125 -4.359375 1.78125 -4.359375 C 2.46875 -4.359375 2.828125 -3.8125 2.828125 -3.25 C 2.828125 -2.65625 2.40625 -2.171875 2.171875 -1.921875 L 0.5 -0.265625 C 0.4375 -0.203125 0.4375 -0.1875 0.4375 0 L 3.296875 0 Z M 3.5 -1.265625 "/>
</symbol>
<symbol
overflow="visible" id="tmb87c6f-12">
<path style="stroke:none;" d="M 5.328125 -2.328125 C 5.4375 -2.328125 5.59375 -2.328125 5.59375 -2.5 C 5.59375 -2.671875 5.421875 -2.671875 5.328125 -2.671875 L 0.75 -2.671875 C 0.65625 -2.671875 0.484375 -2.671875 0.484375 -2.5 C 0.484375 -2.328125 0.640625 -2.328125 0.75 -2.328125 Z M 5.328125 -0.8125 C 5.421875 -0.8125 5.59375 -0.8125 5.59375 -0.96875 C 5.59375 -1.140625 5.4375 -1.140625 5.328125 -1.140625 L 0.75 -1.140625 C 0.640625 -1.140625 0.484375 -1.140625 0.484375 -0.96875 C 0.484375 -0.8125 0.65625 -0.8125 0.75 -0.8125 Z M 5.328125 -0.8125 "/>
</symbol>
<symbol overflow="visible" id="tmb87c6f-13">
<path style="stroke:none;"
d="M 3.578125 -2.21875 C 3.578125 -2.96875 3.484375 -3.53125 3.171875 -4.015625 C 2.953125 -4.328125 2.53125 -4.609375 1.96875 -4.609375 C 0.359375 -4.609375 0.359375 -2.71875 0.359375 -2.21875 C 0.359375 -1.71875 0.359375 0.140625 1.96875 0.140625 C 3.578125 0.140625 3.578125 -1.71875 3.578125 -2.21875 Z M 1.96875 -0.0625 C 1.65625 -0.0625 1.234375 -0.25 1.09375 -0.8125 C 0.984375 -1.21875 0.984375 -1.796875 0.984375 -2.296875 C 0.984375 -2.8125 0.984375 -3.34375 1.09375 -3.71875 C 1.234375 -4.265625 1.6875 -4.40625 1.96875 -4.40625 C 2.34375 -4.40625 2.703125 -4.1875 2.828125 -3.78125 C 2.9375 -3.40625 2.953125 -2.90625 2.953125 -2.296875 C 2.953125 -1.796875 2.953125 -1.28125 2.859375 -0.84375 C 2.71875 -0.203125 2.25 -0.0625 1.96875 -0.0625 Z M 1.96875 -0.0625 "/>
</symbol>

<symbol overflow="visible" id="tmb87c6f-15">
<path style="stroke:none;" d="M 2.921875 -0.953125 L 2.703125 -0.953125 C 2.6875 -0.859375 2.640625 -0.5625 2.5625 -0.5 C 2.53125 -0.46875 2.109375 -0.46875 2.03125 -0.46875 L 1.0625 -0.46875 C 1.390625 -0.71875 1.765625 -1 2.0625 -1.1875 C 2.5 -1.5 2.921875 -1.78125 2.921875 -2.3125 C 2.921875 -2.953125 2.3125 -3.296875 1.609375 -3.296875 C 0.9375 -3.296875 0.453125 -2.90625 0.453125 -2.421875 C 0.453125 -2.171875 0.671875 -2.125 0.734375 -2.125 C 0.875 -2.125 1.03125 -2.21875 1.03125 -2.421875 C 1.03125 -2.59375 0.90625 -2.6875 0.75 -2.703125 C 0.890625 -2.9375 1.171875 -3.078125 1.5 -3.078125 C 1.984375 -3.078125 2.390625 -2.796875 2.390625 -2.3125 C 2.390625 -1.890625 2.09375 -1.578125 1.71875 -1.25 L 0.515625 -0.234375 C 0.453125 -0.1875 0.453125 -0.1875 0.453125 -0.15625 L 0.453125 0 L 2.75 0 Z M 2.921875 -0.953125 "/>
</symbol>
<symbol
overflow="visible" id="tmb87c6f-16">
<path style="stroke:none;" d="M 1.96875 -3.15625 C 1.96875 -3.296875 1.953125 -3.296875 1.796875 -3.296875 C 1.4375 -2.984375 0.890625 -2.984375 0.796875 -2.984375 L 0.703125 -2.984375 L 0.703125 -2.765625 L 0.796875 -2.765625 C 0.90625 -2.765625 1.234375 -2.78125 1.515625 -2.90625 L 1.515625 -0.421875 C 1.515625 -0.265625 1.515625 -0.21875 0.984375 -0.21875 L 0.75 -0.21875 L 0.75 0 C 1.015625 -0.015625 1.453125 -0.015625 1.75 -0.015625 C 2.03125 -0.015625 2.46875 -0.015625 2.75 0 L 2.75 -0.21875 L 2.5 -0.21875 C 1.96875 -0.21875 1.96875 -0.265625 1.96875 -0.421875 Z M 1.96875 -3.15625 "/>
</symbol>
<symbol overflow="visible" id="tmb87c6f-17">
<path style="stroke:none;"
d="M 2.6875 -1.09375 L 4.40625 -1.09375 C 4.46875 -1.09375 4.609375 -1.09375 4.609375 -1.234375 C 4.609375 -1.375 4.46875 -1.375 4.40625 -1.375 L 2.6875 -1.375 L 2.6875 -3.09375 C 2.6875 -3.171875 2.6875 -3.296875 2.546875 -3.296875 C 2.40625 -3.296875 2.40625 -3.171875 2.40625 -3.09375 L 2.40625 -1.375 L 0.671875 -1.375 C 0.609375 -1.375 0.484375 -1.375 0.484375 -1.234375 C 0.484375 -1.09375 0.609375 -1.09375 0.671875 -1.09375 L 2.40625 -1.09375 L 2.40625 0.625 C 2.40625 0.6875 2.40625 0.828125 2.546875 0.828125 C 2.6875 0.828125 2.6875 0.6875 2.6875 0.625 Z M 2.6875 -1.09375 "/>
</symbol>
<symbol overflow="visible" id="tmb87c6f-18">
<path style="stroke:none;" d="M 1.640625 -1.640625 C 2.09375 -1.640625 2.390625 -1.359375 2.390625 -0.859375 C 2.390625 -0.359375 2.078125 -0.09375 1.640625 -0.09375 C 1.578125 -0.09375 1 -0.09375 0.75 -0.359375 C 0.953125 -0.375 1 -0.53125 1 -0.65625 C 1 -0.84375 0.859375 -0.953125 0.703125 -0.953125 C 0.546875 -0.953125 0.390625 -0.859375 0.390625 -0.640625 C 0.390625 -0.125 0.984375 0.109375 1.65625 0.109375 C 2.46875 0.109375 2.96875 -0.375 2.96875 -0.859375 C 2.96875 -1.265625 2.609375 -1.609375 2.046875 -1.75 C 2.640625 -1.9375 2.796875 -2.3125 2.796875 -2.59375 C 2.796875 -3 2.296875 -3.296875 1.671875 -3.296875 C 1.0625 -3.296875 0.5625 -3.046875 0.5625 -2.59375 C 0.5625 -2.359375 0.765625 -2.296875 0.859375 -2.296875 C 1 -2.296875 1.140625 -2.40625 1.140625 -2.578125 C 1.140625 -2.703125 1.078125 -2.84375 0.890625 -2.875 C 1.109375 -3.09375 1.546875 -3.109375 1.65625 -3.109375 C 2.015625 -3.109375 2.28125 -2.921875 2.28125 -2.59375 C 2.28125 -2.296875 2.078125 -1.859375 1.5625 -1.828125 C 1.421875 -1.8125 1.40625 -1.8125 1.28125 -1.8125 C 1.21875 -1.796875 1.171875 -1.796875 1.171875 -1.71875 C 1.171875 -1.640625 1.21875 -1.640625 1.3125 -1.640625 Z M 1.640625 -1.640625 "/>
</symbol>
<symbol
overflow="visible" id="tmb87c6f-19">
<path style="stroke:none;" d="M 3.0625 -0.8125 L 3.0625 -1.03125 L 2.4375 -1.03125 L 2.4375 -3.203125 C 2.4375 -3.328125 2.4375 -3.359375 2.296875 -3.359375 C 2.203125 -3.359375 2.203125 -3.34375 2.140625 -3.28125 L 0.3125 -1.03125 L 0.3125 -0.8125 L 1.96875 -0.8125 L 1.96875 -0.421875 C 1.96875 -0.265625 1.96875 -0.21875 1.53125 -0.21875 L 1.359375 -0.21875 L 1.359375 0 C 1.59375 -0.015625 1.90625 -0.015625 2.203125 -0.015625 C 2.484375 -0.015625 2.796875 -0.015625 3.046875 0 L 3.046875 -0.21875 L 2.875 -0.21875 C 2.4375 -0.21875 2.4375 -0.265625 2.4375 -0.421875 L 2.4375 -0.8125 Z M 2 -2.8125 L 2 -1.03125 L 0.546875 -1.03125 Z M 2 -2.8125 "/>
</symbol>
<symbol overflow="visible" id="tmb87c6f-20">
<path style="stroke:none;"
d="M 0.96875 -2.734375 C 1.234375 -2.671875 1.453125 -2.671875 1.515625 -2.671875 C 1.84375 -2.671875 2.09375 -2.765625 2.21875 -2.828125 C 2.34375 -2.890625 2.671875 -3.109375 2.671875 -3.21875 C 2.671875 -3.28125 2.625 -3.296875 2.609375 -3.296875 C 2.59375 -3.296875 2.59375 -3.296875 2.53125 -3.28125 C 2.34375 -3.203125 2.046875 -3.140625 1.71875 -3.140625 C 1.4375 -3.140625 1.15625 -3.1875 0.890625 -3.28125 C 0.84375 -3.296875 0.828125 -3.296875 0.828125 -3.296875 C 0.75 -3.296875 0.75 -3.234375 0.75 -3.15625 L 0.75 -1.671875 C 0.75 -1.59375 0.75 -1.53125 0.84375 -1.53125 C 0.90625 -1.53125 0.90625 -1.53125 0.953125 -1.59375 C 1.140625 -1.8125 1.40625 -1.921875 1.734375 -1.921875 C 2.03125 -1.921875 2.1875 -1.75 2.25 -1.640625 C 2.375 -1.46875 2.390625 -1.25 2.390625 -1.015625 C 2.390625 -0.8125 2.375 -0.53125 2.171875 -0.34375 C 1.953125 -0.109375 1.671875 -0.09375 1.5625 -0.09375 C 1.25 -0.09375 0.875 -0.234375 0.734375 -0.53125 C 0.9375 -0.546875 1 -0.6875 1 -0.796875 C 1 -0.953125 0.890625 -1.078125 0.734375 -1.078125 C 0.625 -1.078125 0.453125 -1.015625 0.453125 -0.78125 C 0.453125 -0.296875 0.921875 0.109375 1.578125 0.109375 C 2.3125 0.109375 2.921875 -0.390625 2.921875 -1 C 2.921875 -1.5625 2.4375 -2.078125 1.75 -2.078125 C 1.4375 -2.078125 1.1875 -2 0.96875 -1.84375 Z M 0.96875 -2.734375 "/>
</symbol>
<symbol overflow="visible" id="tmb87c6f-21">
<path style="stroke:none;" d="M 0.921875 -1.625 C 0.921875 -1.859375 0.9375 -2.25 1.109375 -2.5625 C 1.25 -2.828125 1.578125 -3.109375 2.03125 -3.109375 C 2.125 -3.109375 2.359375 -3.09375 2.5 -2.984375 C 2.421875 -2.96875 2.296875 -2.890625 2.296875 -2.71875 C 2.296875 -2.5625 2.40625 -2.453125 2.5625 -2.453125 C 2.640625 -2.453125 2.8125 -2.5 2.8125 -2.734375 C 2.8125 -3 2.625 -3.296875 2.03125 -3.296875 C 1.171875 -3.296875 0.390625 -2.59375 0.390625 -1.578125 C 0.390625 -0.390625 0.96875 0.109375 1.703125 0.109375 C 2.1875 0.109375 2.421875 -0.078125 2.59375 -0.21875 C 2.90625 -0.46875 2.96875 -0.765625 2.96875 -1.015625 C 2.96875 -1.3125 2.875 -1.5625 2.609375 -1.78125 C 2.390625 -1.984375 2.171875 -2.125 1.734375 -2.125 C 1.453125 -2.125 1.125 -1.984375 0.921875 -1.625 Z M 1.703125 -0.09375 C 0.9375 -0.09375 0.9375 -0.921875 0.9375 -1.125 C 0.9375 -1.5 1.203125 -1.953125 1.734375 -1.953125 C 1.984375 -1.953125 2.140625 -1.890625 2.296875 -1.6875 C 2.4375 -1.5 2.453125 -1.296875 2.453125 -1.015625 C 2.453125 -0.734375 2.453125 -0.546875 2.28125 -0.34375 C 2.15625 -0.1875 1.96875 -0.09375 1.703125 -0.09375 Z M 1.703125 -0.09375 "/>
</symbol>
<symbol
overflow="visible" id="tmb87c6f-22">
<path style="stroke:none;" d="M 3.09375 -2.96875 C 3.140625 -3.015625 3.140625 -3.03125 3.140625 -3.046875 L 3.140625 -3.1875 L 1.953125 -3.1875 C 1.8125 -3.1875 1.09375 -3.203125 1 -3.21875 C 0.890625 -3.25 0.890625 -3.296875 0.875 -3.34375 L 0.671875 -3.34375 L 0.484375 -2.234375 L 0.6875 -2.234375 C 0.703125 -2.3125 0.75 -2.625 0.84375 -2.6875 C 0.859375 -2.703125 1.328125 -2.71875 1.40625 -2.71875 L 2.578125 -2.71875 C 2.375 -2.46875 2.109375 -2.203125 1.921875 -1.96875 C 1.328125 -1.203125 1.25 -0.5 1.25 -0.1875 C 1.25 0.078125 1.421875 0.109375 1.515625 0.109375 C 1.78125 0.109375 1.78125 -0.140625 1.78125 -0.203125 L 1.78125 -0.296875 C 1.78125 -1.1875 1.96875 -1.734375 2.265625 -2.0625 Z M 3.09375 -2.96875 "/>
</symbol>

<symbol overflow="visible" id="tmb87c6f-24">
<path
style="stroke:none;" d="M 1.4375 -1.234375 C 1.4375 -1.40625 1.296875 -1.546875 1.140625 -1.546875 C 0.96875 -1.546875 0.828125 -1.40625 0.828125 -1.234375 C 0.828125 -1.0625 0.96875 -0.9375 1.140625 -0.9375 C 1.296875 -0.9375 1.4375 -1.0625 1.4375 -1.234375 Z M 1.4375 -1.234375 "/>
</symbol>

<symbol overflow="visible" id="tmb87c6f-26">
<path style="stroke:none;" d="M 2.625 -3.6875 L 3.75 -3.6875 C 3.421875 -2.234375 3.328125 -1.796875 3.328125 -1.140625 C 3.328125 -0.984375 3.328125 -0.71875 3.40625 -0.390625 C 3.5 0.046875 3.609375 0.109375 3.765625 0.109375 C 3.96875 0.109375 4.171875 -0.0625 4.171875 -0.265625 C 4.171875 -0.328125 4.171875 -0.34375 4.109375 -0.484375 C 3.828125 -1.203125 3.828125 -1.84375 3.828125 -2.125 C 3.828125 -2.640625 3.890625 -3.1875 4 -3.6875 L 5.125 -3.6875 C 5.265625 -3.6875 5.609375 -3.6875 5.609375 -4.03125 C 5.609375 -4.265625 5.40625 -4.265625 5.21875 -4.265625 L 1.90625 -4.265625 C 1.6875 -4.265625 1.3125 -4.265625 0.875 -3.796875 C 0.53125 -3.421875 0.265625 -2.96875 0.265625 -2.90625 C 0.265625 -2.90625 0.265625 -2.8125 0.390625 -2.8125 C 0.46875 -2.8125 0.484375 -2.859375 0.546875 -2.9375 C 1.03125 -3.6875 1.609375 -3.6875 1.796875 -3.6875 L 2.375 -3.6875 C 2.046875 -2.5 1.515625 -1.296875 1.09375 -0.390625 C 1.015625 -0.25 1.015625 -0.234375 1.015625 -0.15625 C 1.015625 0.03125 1.171875 0.109375 1.3125 0.109375 C 1.609375 0.109375 1.6875 -0.171875 1.796875 -0.53125 C 1.9375 -0.984375 1.9375 -1.015625 2.078125 -1.5 Z M 2.625 -3.6875 "/>
</symbol>
<symbol
overflow="visible" id="tmb87c6f-27">
<path style="stroke:none;" d="M 1.859375 -2.28125 C 2.140625 -2.28125 2.875 -2.3125 3.375 -2.515625 C 4.0625 -2.8125 4.109375 -3.390625 4.109375 -3.53125 C 4.109375 -3.96875 3.734375 -4.375 3.046875 -4.375 C 1.953125 -4.375 0.453125 -3.421875 0.453125 -1.6875 C 0.453125 -0.671875 1.046875 0.109375 2.015625 0.109375 C 3.421875 0.109375 4.265625 -0.9375 4.265625 -1.0625 C 4.265625 -1.125 4.203125 -1.1875 4.140625 -1.1875 C 4.09375 -1.1875 4.078125 -1.171875 4.015625 -1.09375 C 3.234375 -0.109375 2.15625 -0.109375 2.03125 -0.109375 C 1.265625 -0.109375 1.171875 -0.9375 1.171875 -1.265625 C 1.171875 -1.375 1.171875 -1.6875 1.328125 -2.28125 Z M 1.390625 -2.5 C 1.765625 -4.015625 2.796875 -4.15625 3.046875 -4.15625 C 3.515625 -4.15625 3.78125 -3.875 3.78125 -3.53125 C 3.78125 -2.5 2.203125 -2.5 1.796875 -2.5 Z M 1.390625 -2.5 "/>
</symbol>
<symbol overflow="visible" id="tmb87c6f-28">
<path style="stroke:none;"
d="M 0.875 -0.578125 C 0.84375 -0.4375 0.78125 -0.203125 0.78125 -0.15625 C 0.78125 0.015625 0.921875 0.109375 1.0625 0.109375 C 1.1875 0.109375 1.359375 0.03125 1.4375 -0.171875 C 1.453125 -0.1875 1.5625 -0.65625 1.625 -0.90625 C 1.6875 -1.203125 1.765625 -1.5 1.84375 -1.796875 C 1.90625 -2.015625 1.96875 -2.234375 2.015625 -2.453125 C 2.046875 -2.625 2.125 -2.90625 2.140625 -2.953125 C 2.28125 -3.265625 2.8125 -4.15625 3.75 -4.15625 C 4.203125 -4.15625 4.296875 -3.796875 4.296875 -3.46875 C 4.296875 -2.859375 3.796875 -1.578125 3.640625 -1.15625 C 3.5625 -0.9375 3.546875 -0.8125 3.546875 -0.703125 C 3.546875 -0.234375 3.890625 0.109375 4.359375 0.109375 C 5.296875 0.109375 5.65625 -1.34375 5.65625 -1.421875 C 5.65625 -1.515625 5.5625 -1.515625 5.53125 -1.515625 C 5.4375 -1.515625 5.4375 -1.484375 5.390625 -1.34375 C 5.1875 -0.65625 4.859375 -0.109375 4.375 -0.109375 C 4.203125 -0.109375 4.140625 -0.203125 4.140625 -0.4375 C 4.140625 -0.6875 4.234375 -0.921875 4.3125 -1.140625 C 4.5 -1.671875 4.921875 -2.75 4.921875 -3.3125 C 4.921875 -3.984375 4.5 -4.375 3.78125 -4.375 C 2.890625 -4.375 2.40625 -3.75 2.234375 -3.515625 C 2.1875 -4.078125 1.78125 -4.375 1.328125 -4.375 C 0.875 -4.375 0.6875 -4 0.578125 -3.8125 C 0.421875 -3.484375 0.28125 -2.890625 0.28125 -2.859375 C 0.28125 -2.75 0.390625 -2.75 0.40625 -2.75 C 0.5 -2.75 0.515625 -2.765625 0.578125 -2.984375 C 0.75 -3.6875 0.9375 -4.15625 1.296875 -4.15625 C 1.5 -4.15625 1.609375 -4.03125 1.609375 -3.703125 C 1.609375 -3.5 1.578125 -3.390625 1.453125 -2.875 Z M 0.875 -0.578125 "/>
</symbol>

<symbol overflow="visible" id="tmb87c6f-30">
<path style="stroke:none;" d="M 4.609375 21.421875 L 2.46875 11.484375 L 1.171875 13.53125 C 1.09375 13.625 1.09375 13.640625 1.09375 13.65625 C 1.09375 13.6875 1.234375 13.796875 1.234375 13.8125 L 1.90625 12.75 L 4.203125 23.375 C 4.53125 23.375 4.5625 23.375 4.609375 23.125 L 10.0625 0.015625 C 10.078125 -0.0625 10.109375 -0.15625 10.109375 -0.203125 C 10.109375 -0.3125 10.03125 -0.390625 9.90625 -0.390625 C 9.75 -0.390625 9.71875 -0.265625 9.6875 -0.125 Z M 4.609375 21.421875 "/>
</symbol>
<symbol
overflow="visible" id="tmb87c6f-31">
<path style="stroke:none;" d="M 5.109375 17.3125 C 5.125 17.328125 5.203125 17.421875 5.21875 17.421875 L 5.4375 17.421875 C 5.46875 17.421875 5.546875 17.421875 5.546875 17.328125 C 5.546875 17.28125 5.53125 17.265625 5.515625 17.234375 C 5.15625 16.875 4.609375 16.328125 4 15.25 C 2.9375 13.34375 2.53125 10.890625 2.53125 8.515625 C 2.53125 4.125 3.78125 1.53125 5.515625 -0.21875 C 5.546875 -0.25 5.546875 -0.28125 5.546875 -0.296875 C 5.546875 -0.390625 5.484375 -0.390625 5.359375 -0.390625 C 5.234375 -0.390625 5.203125 -0.390625 5.125 -0.3125 C 4.1875 0.5 3.125 1.875 2.4375 3.96875 C 2.015625 5.265625 1.78125 6.859375 1.78125 8.515625 C 1.78125 10.859375 2.203125 13.515625 3.765625 15.8125 C 4.03125 16.203125 4.390625 16.609375 4.390625 16.609375 C 4.5 16.734375 4.640625 16.890625 4.71875 16.953125 Z M 5.109375 17.3125 "/>
</symbol>
<symbol overflow="visible" id="tmb87c6f-32">
<path style="stroke:none;"
d="M 4.125 8.515625 C 4.125 5.671875 3.453125 2.640625 1.5 0.421875 C 1.359375 0.25 1 -0.125 0.765625 -0.34375 C 0.6875 -0.390625 0.671875 -0.390625 0.546875 -0.390625 C 0.453125 -0.390625 0.359375 -0.390625 0.359375 -0.296875 C 0.359375 -0.25 0.390625 -0.21875 0.421875 -0.203125 C 0.75 0.15625 1.28125 0.6875 1.90625 1.78125 C 2.96875 3.6875 3.375 6.125 3.375 8.515625 C 3.375 12.8125 2.171875 15.4375 0.390625 17.25 C 0.375 17.265625 0.359375 17.296875 0.359375 17.328125 C 0.359375 17.421875 0.453125 17.421875 0.546875 17.421875 C 0.671875 17.421875 0.6875 17.421875 0.78125 17.34375 C 1.71875 16.53125 2.78125 15.15625 3.46875 13.0625 C 3.90625 11.703125 4.125 10.109375 4.125 8.515625 Z M 4.125 8.515625 "/>
</symbol>
<symbol overflow="visible" id="tmb87c6f-33">
<path style="stroke:none;" d="M 3.5 25.703125 C 3.5 26.515625 4 28.171875 5.90625 29.1875 C 6.140625 29.3125 6.15625 29.3125 6.3125 29.3125 C 6.53125 29.3125 6.546875 29.296875 6.546875 29.078125 C 6.546875 28.90625 6.53125 28.890625 6.5 28.875 C 6.078125 28.609375 4.78125 27.828125 4.5 26.109375 C 4.46875 25.84375 4.46875 25.828125 4.46875 25.703125 L 4.46875 18.09375 C 4.46875 17.015625 3.71875 15.328125 1.984375 14.46875 C 3.0625 13.890625 4.34375 12.734375 4.453125 10.875 L 4.46875 10.8125 L 4.46875 3.953125 C 4.46875 3.140625 4.46875 2.96875 4.546875 2.578125 C 4.71875 1.796875 5.203125 0.8125 6.453125 0.0625 C 6.53125 0.015625 6.546875 0.015625 6.546875 -0.171875 C 6.546875 -0.390625 6.53125 -0.390625 6.3125 -0.390625 C 6.140625 -0.390625 6.125 -0.390625 5.859375 -0.234375 C 3.640625 1.015625 3.5 2.859375 3.5 3.203125 L 3.5 10.25 C 3.5 10.96875 3.5 11.765625 2.984375 12.6875 C 2.53125 13.5 2 13.90625 1.578125 14.1875 C 1.4375 14.28125 1.421875 14.28125 1.421875 14.453125 C 1.421875 14.625 1.4375 14.640625 1.515625 14.6875 C 2.359375 15.25 3.265625 16.125 3.484375 17.734375 C 3.5 17.953125 3.5 17.984375 3.5 18.09375 Z M 3.5 25.703125 "/>
</symbol>
<symbol
overflow="visible" id="tmb87c6f-34">
<path style="stroke:none;" d="M 12.546875 13.875 L 13.734375 10.703125 L 13.5 10.703125 C 13.109375 11.734375 12.0625 12.40625 10.921875 12.703125 C 10.703125 12.75 9.734375 13 7.828125 13 L 1.859375 13 L 6.90625 7.09375 C 6.96875 7.015625 7 6.984375 7 6.9375 C 7 6.921875 7 6.890625 6.921875 6.78125 L 2.3125 0.46875 L 7.734375 0.46875 C 9.0625 0.46875 9.96875 0.609375 10.0625 0.640625 C 10.59375 0.71875 11.453125 0.875 12.234375 1.375 C 12.484375 1.53125 13.15625 1.984375 13.5 2.78125 L 13.734375 2.78125 L 12.546875 0 L 0.828125 0 C 0.609375 0 0.59375 0.015625 0.5625 0.0625 C 0.5625 0.09375 0.5625 0.28125 0.5625 0.390625 L 5.796875 7.5625 L 0.65625 13.578125 C 0.5625 13.703125 0.5625 13.75 0.5625 13.765625 C 0.5625 13.875 0.65625 13.875 0.828125 13.875 Z M 12.546875 13.875 "/>
</symbol>
<symbol overflow="visible" id="tmb87c6f-35">
<path style="stroke:none;"
d="M 3.5 18.09375 L 3.5 24.96875 C 3.5 25.78125 3.5 25.953125 3.421875 26.328125 C 3.25 27.125 2.78125 28.09375 1.515625 28.84375 C 1.4375 28.890625 1.421875 28.90625 1.421875 29.078125 C 1.421875 29.3125 1.4375 29.3125 1.671875 29.3125 C 1.828125 29.3125 1.859375 29.3125 2.125 29.15625 C 4.34375 27.890625 4.46875 26.046875 4.46875 25.703125 L 4.46875 18.65625 C 4.46875 17.953125 4.46875 17.140625 4.984375 16.234375 C 5.421875 15.46875 5.921875 15.046875 6.40625 14.734375 C 6.53125 14.640625 6.546875 14.625 6.546875 14.453125 C 6.546875 14.328125 6.546875 14.28125 6.515625 14.25 C 6.046875 13.953125 4.75 13.125 4.5 11.171875 C 4.46875 10.953125 4.46875 10.9375 4.46875 10.8125 L 4.46875 3.203125 C 4.46875 2.40625 3.96875 0.75 2.0625 -0.265625 C 1.828125 -0.390625 1.8125 -0.390625 1.671875 -0.390625 C 1.4375 -0.390625 1.421875 -0.390625 1.421875 -0.171875 C 1.421875 -0.015625 1.421875 0.015625 1.5 0.0625 C 3.375 1.171875 3.5 2.828125 3.5 3.21875 L 3.5 10.8125 C 3.5 11.90625 4.265625 13.578125 5.984375 14.453125 C 4.90625 15.03125 3.640625 16.1875 3.515625 18.046875 Z M 3.5 18.09375 "/>
</symbol>

<symbol overflow="visible" id="tmb87c6f-37">
<path style="stroke:none;" d="M 6.546875 -2.28125 C 6.6875 -2.28125 6.875 -2.28125 6.875 -2.484375 C 6.875 -2.671875 6.6875 -2.671875 6.546875 -2.671875 L 1.15625 -2.671875 C 1.015625 -2.671875 0.828125 -2.671875 0.828125 -2.484375 C 0.828125 -2.28125 1.015625 -2.28125 1.15625 -2.28125 Z M 6.546875 -2.28125 "/>
</symbol>
<symbol
overflow="visible" id="tmb87c6f-38">
<path style="stroke:none;" d="M 3.859375 8.46875 L 2.09375 4.59375 C 2.046875 4.5 2.03125 4.453125 1.96875 4.453125 C 1.9375 4.453125 1.90625 4.453125 1.828125 4.53125 L 0.84375 5.265625 C 0.734375 5.359375 0.71875 5.375 0.71875 5.40625 C 0.71875 5.484375 0.765625 5.515625 0.828125 5.515625 C 0.859375 5.515625 0.875 5.515625 0.953125 5.4375 L 1.46875 5.046875 L 3.4375 9.359375 C 3.5 9.5 3.515625 9.515625 3.625 9.515625 C 3.78125 9.515625 3.796875 9.46875 3.875 9.328125 L 8.390625 -0.03125 C 8.4375 -0.140625 8.453125 -0.15625 8.453125 -0.203125 C 8.453125 -0.3125 8.375 -0.390625 8.25 -0.390625 C 8.140625 -0.390625 8.109375 -0.328125 8.046875 -0.203125 Z M 3.859375 8.46875 "/>
</symbol>

<symbol overflow="visible" id="tmb87c6f-40">
<path
style="stroke:none;" d="M 1.109375 -2.28125 L 3.265625 -2.28125 C 3.453125 -2.28125 3.609375 -2.28125 3.796875 -2.28125 C 3.875 -2.296875 3.96875 -2.3125 4.046875 -2.375 C 4.125 -2.46875 4.09375 -2.625 4.09375 -2.734375 C 4.0625 -3.046875 3.984375 -3.375 3.8125 -3.640625 C 3.734375 -3.78125 3.625 -3.90625 3.5 -4.015625 C 2.9375 -4.515625 2.03125 -4.53125 1.390625 -4.171875 C 1.171875 -4.046875 1 -3.890625 0.84375 -3.71875 C 0.296875 -3.09375 0.140625 -2.171875 0.40625 -1.390625 C 0.546875 -1.015625 0.765625 -0.6875 1.0625 -0.421875 C 1.234375 -0.28125 1.4375 -0.15625 1.640625 -0.0625 C 1.875 0.046875 2.140625 0.09375 2.390625 0.09375 C 2.96875 0.125 3.515625 -0.15625 3.84375 -0.609375 C 3.9375 -0.734375 4.015625 -0.875 4.046875 -1.015625 C 4.0625 -1.0625 4.078125 -1.15625 4.03125 -1.203125 C 3.96875 -1.28125 3.890625 -1.1875 3.859375 -1.140625 L 3.828125 -1.09375 L 3.796875 -1.0625 C 3.75 -0.953125 3.6875 -0.84375 3.625 -0.75 C 3.453125 -0.5 3.203125 -0.3125 2.921875 -0.234375 C 2.78125 -0.171875 2.625 -0.15625 2.46875 -0.15625 C 2.328125 -0.171875 2.203125 -0.203125 2.078125 -0.25 C 1.96875 -0.296875 1.859375 -0.359375 1.75 -0.4375 C 1.671875 -0.5 1.59375 -0.578125 1.53125 -0.65625 C 1.15625 -1.125 1.109375 -1.71875 1.109375 -2.28125 Z M 3.453125 -2.5 L 1.125 -2.5 C 1.15625 -2.9375 1.21875 -3.390625 1.5 -3.75 C 1.734375 -4.015625 2.0625 -4.21875 2.421875 -4.1875 C 2.5 -4.1875 2.578125 -4.15625 2.671875 -4.125 C 2.75 -4.09375 2.828125 -4.046875 2.90625 -4 C 3 -3.90625 3.078125 -3.8125 3.15625 -3.71875 C 3.390625 -3.359375 3.421875 -2.921875 3.453125 -2.5 Z M 3.453125 -2.5 "/>
</symbol>
<symbol overflow="visible" id="tmb87c6f-41">
<path style="stroke:none;" d="M 0.265625 -4.265625 L 0.265625 -3.9375 C 0.5 -3.9375 0.796875 -3.953125 0.953125 -3.734375 C 1.015625 -3.640625 1.03125 -3.53125 1.046875 -3.421875 L 1.046875 -0.796875 C 1.03125 -0.6875 1.015625 -0.578125 0.953125 -0.484375 C 0.890625 -0.40625 0.796875 -0.359375 0.703125 -0.34375 C 0.5625 -0.3125 0.421875 -0.3125 0.265625 -0.3125 L 0.265625 0 C 0.265625 0 1.328125 -0.03125 1.328125 -0.03125 C 1.328125 -0.03125 2.671875 0 2.671875 0 L 2.671875 -0.3125 C 2.484375 -0.3125 2.296875 -0.3125 2.125 -0.34375 C 2.015625 -0.359375 1.890625 -0.390625 1.8125 -0.46875 C 1.71875 -0.578125 1.71875 -0.71875 1.703125 -0.859375 C 1.6875 -1.09375 1.703125 -1.328125 1.703125 -1.5625 C 1.703125 -2.15625 1.671875 -2.796875 1.90625 -3.359375 C 2.03125 -3.671875 2.265625 -3.96875 2.578125 -4.078125 C 2.703125 -4.125 2.828125 -4.125 2.953125 -4.125 C 2.90625 -4.078125 2.875 -4.046875 2.84375 -3.984375 C 2.78125 -3.875 2.75 -3.765625 2.78125 -3.640625 C 2.796875 -3.59375 2.828125 -3.546875 2.859375 -3.5 C 2.90625 -3.453125 2.96875 -3.390625 3.046875 -3.375 C 3.265625 -3.3125 3.484375 -3.40625 3.5625 -3.609375 C 3.65625 -3.859375 3.484375 -4.125 3.265625 -4.265625 C 3.09375 -4.34375 2.875 -4.375 2.6875 -4.34375 C 2.34375 -4.296875 2.046875 -4.046875 1.859375 -3.75 C 1.765625 -3.609375 1.71875 -3.453125 1.671875 -3.3125 L 1.65625 -4.375 Z M 0.265625 -4.265625 "/>
</symbol>
<symbol
overflow="visible" id="tmb87c6f-42">
<path style="stroke:none;" d="M 1.09375 -4.265625 L 0.328125 -4.265625 L 0.328125 -3.9375 L 1.09375 -3.9375 L 1.09375 -0.84375 C 1.09375 -0.71875 1.09375 -0.578125 1.015625 -0.46875 C 0.953125 -0.390625 0.859375 -0.359375 0.765625 -0.34375 C 0.625 -0.3125 0.46875 -0.3125 0.34375 -0.3125 L 0.34375 0 C 0.34375 0 1.421875 -0.03125 1.421875 -0.03125 C 1.421875 -0.03125 2.71875 0 2.71875 0 L 2.71875 -0.3125 C 2.546875 -0.3125 2.359375 -0.3125 2.171875 -0.34375 C 2.078125 -0.359375 1.953125 -0.390625 1.875 -0.46875 C 1.78125 -0.578125 1.765625 -0.71875 1.765625 -0.84375 C 1.75 -1.046875 1.765625 -1.234375 1.765625 -1.421875 L 1.765625 -3.9375 L 2.890625 -3.9375 L 2.890625 -4.265625 L 1.734375 -4.265625 L 1.734375 -5.15625 C 1.734375 -5.484375 1.734375 -5.8125 1.859375 -6.109375 C 1.984375 -6.40625 2.25 -6.703125 2.578125 -6.734375 C 2.71875 -6.75 2.828125 -6.71875 2.96875 -6.703125 C 2.828125 -6.59375 2.703125 -6.484375 2.6875 -6.3125 C 2.671875 -6.015625 2.96875 -5.796875 3.234375 -5.890625 C 3.265625 -5.90625 3.3125 -5.921875 3.34375 -5.953125 C 3.375 -5.984375 3.421875 -6.015625 3.453125 -6.0625 C 3.46875 -6.109375 3.484375 -6.125 3.5 -6.171875 C 3.515625 -6.296875 3.515625 -6.40625 3.453125 -6.53125 C 3.375 -6.703125 3.203125 -6.828125 3.015625 -6.90625 C 2.828125 -6.984375 2.59375 -7 2.390625 -6.953125 C 1.828125 -6.859375 1.34375 -6.4375 1.171875 -5.890625 C 1.09375 -5.640625 1.09375 -5.390625 1.09375 -5.125 Z M 1.09375 -4.265625 "/>
</symbol>

<symbol overflow="visible" id="tmb87c6f-44">
<path
style="stroke:none;" d="M 3.078125 5.828125 L 1.71875 3.140625 C 1.671875 3.0625 1.65625 3.03125 1.609375 3.03125 C 1.5625 3.03125 1.546875 3.03125 1.5 3.078125 L 0.75 3.59375 C 0.671875 3.640625 0.65625 3.65625 0.65625 3.703125 C 0.65625 3.796875 0.75 3.796875 0.78125 3.796875 L 1.25 3.484375 L 2.765625 6.484375 C 2.8125 6.578125 2.828125 6.59375 2.921875 6.59375 C 2.984375 6.59375 3.0625 6.59375 3.125 6.46875 L 6.625 -0.03125 C 6.671875 -0.125 6.671875 -0.15625 6.671875 -0.171875 C 6.671875 -0.28125 6.578125 -0.34375 6.5 -0.34375 C 6.40625 -0.34375 6.359375 -0.265625 6.328125 -0.21875 Z M 3.078125 5.828125 "/>
</symbol>
<symbol overflow="visible" id="tmb87c6f-45">
<path style="stroke:none;" d="M 4 -1.90625 C 3.65625 -2.3125 3.046875 -3.0625 2.03125 -3.0625 C 1.15625 -3.0625 0.546875 -2.328125 0.546875 -1.484375 C 0.546875 -0.6875 1.140625 0.0625 2 0.0625 C 2.984375 0.0625 3.609375 -0.71875 3.890625 -1.09375 C 4.234375 -0.671875 4.84375 0.0625 5.875 0.0625 C 6.75 0.0625 7.359375 -0.671875 7.359375 -1.5 C 7.359375 -2.3125 6.75 -3.0625 5.890625 -3.0625 C 4.90625 -3.0625 4.28125 -2.265625 4 -1.90625 Z M 4.234375 -1.640625 C 4.65625 -2.3125 5.265625 -2.796875 5.953125 -2.796875 C 6.671875 -2.796875 7.15625 -2.171875 7.15625 -1.5 C 7.15625 -0.8125 6.59375 -0.3125 5.984375 -0.3125 C 5.328125 -0.3125 4.875 -0.875 4.234375 -1.640625 Z M 3.65625 -1.34375 C 3.234375 -0.671875 2.625 -0.1875 1.9375 -0.1875 C 1.234375 -0.1875 0.734375 -0.8125 0.734375 -1.484375 C 0.734375 -2.1875 1.296875 -2.671875 1.90625 -2.671875 C 2.5625 -2.671875 3.015625 -2.125 3.65625 -1.34375 Z M 3.65625 -1.34375 "/>
</symbol>

<symbol
overflow="visible" id="tmb87c6f-47">
<path style="stroke:none;" d="M 0.84375 -0.4375 C 0.8125 -0.34375 0.78125 -0.171875 0.78125 -0.15625 C 0.78125 0 0.90625 0.0625 1.015625 0.0625 C 1.140625 0.0625 1.25 -0.015625 1.28125 -0.078125 C 1.3125 -0.140625 1.375 -0.375 1.40625 -0.515625 C 1.4375 -0.640625 1.515625 -0.96875 1.5625 -1.140625 C 1.609375 -1.296875 1.640625 -1.4375 1.671875 -1.609375 C 1.75 -1.890625 1.765625 -1.9375 1.96875 -2.234375 C 2.171875 -2.5 2.484375 -2.859375 3.015625 -2.859375 C 3.40625 -2.859375 3.421875 -2.515625 3.421875 -2.375 C 3.421875 -1.96875 3.125 -1.1875 3.015625 -0.90625 C 2.9375 -0.703125 2.90625 -0.640625 2.90625 -0.53125 C 2.90625 -0.15625 3.21875 0.0625 3.5625 0.0625 C 4.265625 0.0625 4.5625 -0.890625 4.5625 -0.984375 C 4.5625 -1.078125 4.46875 -1.078125 4.453125 -1.078125 C 4.359375 -1.078125 4.34375 -1.046875 4.328125 -0.96875 C 4.15625 -0.40625 3.859375 -0.125 3.59375 -0.125 C 3.4375 -0.125 3.40625 -0.21875 3.40625 -0.375 C 3.40625 -0.53125 3.453125 -0.625 3.578125 -0.921875 C 3.65625 -1.140625 3.9375 -1.875 3.9375 -2.265625 C 3.9375 -2.9375 3.40625 -3.0625 3.03125 -3.0625 C 2.46875 -3.0625 2.078125 -2.703125 1.859375 -2.421875 C 1.8125 -2.90625 1.40625 -3.0625 1.125 -3.0625 C 0.828125 -3.0625 0.671875 -2.84375 0.578125 -2.6875 C 0.421875 -2.421875 0.328125 -2.03125 0.328125 -2 C 0.328125 -1.90625 0.421875 -1.90625 0.4375 -1.90625 C 0.546875 -1.90625 0.546875 -1.921875 0.59375 -2.109375 C 0.703125 -2.53125 0.828125 -2.859375 1.109375 -2.859375 C 1.28125 -2.859375 1.328125 -2.71875 1.328125 -2.53125 C 1.328125 -2.390625 1.265625 -2.140625 1.21875 -1.953125 C 1.171875 -1.765625 1.109375 -1.484375 1.0625 -1.328125 Z M 0.84375 -0.4375 "/>
</symbol>
</g>
<clipPath xml:space="preserve" id="tmb87c6f-48">
  <path
d="M 0 0 L 370.878906 0 L 370.878906 70.742188 L 0 70.742188 Z M 0 0 "/>
</clipPath>
</defs><g clip-path="url(#tmb87c6f-48)" clip-rule="nonzero">
<path style=" stroke:none;fill-rule:nonzero;fill:rgb(100%,100%,100%);fill-opacity:0.007;" d="M 0.238281 70.742188 L 370.640625 70.742188 L 370.640625 0.0859375 L 0.238281 0.0859375 Z M 0.238281 70.742188 "/>
</g>
<g
xml:space="preserve" style="fill:rgb(0%,0%,0%);fill-opacity:1;">
  <use xlink:href="#tmb87c6f-1" x="57.689613" y="12.458373"/>
</g>
<g xml:space="preserve" style="fill:rgb(0%,0%,0%);fill-opacity:1;">
  <use
xlink:href="#tmb87c6f-1" x="4.520011" y="27.088935"/>
</g>
<g xml:space="preserve" style="fill:rgb(0%,0%,0%);fill-opacity:1;">
  <use xlink:href="#tmb87c6f-2" x="11.062132" y="27.088935"/>
</g>
<g
xml:space="preserve" style="fill:rgb(0%,0%,0%);fill-opacity:1;">
  <use xlink:href="#tmb87c6f-9" x="66.134897" y="21.855238"/>
</g>
<g xml:space="preserve" style="fill:rgb(0%,0%,0%);fill-opacity:1;">
  <use
xlink:href="#tmb87c6f-9" x="21.410578" y="32.91737"/>
</g>
<g xml:space="preserve" style="fill:rgb(0%,0%,0%);fill-opacity:1;">
  <use xlink:href="#tmb87c6f-10" x="26.763223" y="32.91737"/>
</g>
<g
xml:space="preserve" style="fill:rgb(0%,0%,0%);fill-opacity:1;">
  <use xlink:href="#tmb87c6f-15" x="72.795966" y="29.229993"/>
</g>
<g xml:space="preserve" style="fill:rgb(0%,0%,0%);fill-opacity:1;">
  <use
xlink:href="#tmb87c6f-16" x="34.851663" y="38.50791"/>
</g>
<g xml:space="preserve" style="fill:rgb(0%,0%,0%);fill-opacity:1;">
  <use xlink:href="#tmb87c6f-17" x="39.371674" y="38.50791"/>
</g>
<g
xml:space="preserve" style="fill:rgb(0%,0%,0%);fill-opacity:1;">
  <use xlink:href="#tmb87c6f-18" x="78.14861" y="35.534219"/>
</g>
<g xml:space="preserve" style="fill:rgb(0%,0%,0%);fill-opacity:1;">
  <use
xlink:href="#tmb87c6f-16" x="46.151691" y="44.336345"/>
</g>
<g xml:space="preserve" style="fill:rgb(0%,0%,0%);fill-opacity:1;">
  <use xlink:href="#tmb87c6f-17" x="50.671702" y="44.336345"/>
</g>
<g
xml:space="preserve" style="fill:rgb(0%,0%,0%);fill-opacity:1;">
  <use xlink:href="#tmb87c6f-19" x="83.620203" y="41.362654"/>
</g>
<g xml:space="preserve" style="fill:rgb(0%,0%,0%);fill-opacity:1;">
  <use
xlink:href="#tmb87c6f-16" x="57.451718" y="50.164781"/>
</g>
<g xml:space="preserve" style="fill:rgb(0%,0%,0%);fill-opacity:1;">
  <use xlink:href="#tmb87c6f-17" x="61.971729" y="50.164781"/>
</g>
<g
xml:space="preserve" style="fill:rgb(0%,0%,0%);fill-opacity:1;">
  <use xlink:href="#tmb87c6f-20" x="88.972847" y="47.191089"/>
</g>
<g xml:space="preserve" style="fill:rgb(0%,0%,0%);fill-opacity:1;">
  <use
xlink:href="#tmb87c6f-16" x="68.751746" y="55.993216"/>
</g>
<g xml:space="preserve" style="fill:rgb(0%,0%,0%);fill-opacity:1;">
  <use xlink:href="#tmb87c6f-17" x="73.271757" y="55.993216"/>
</g>
<g
xml:space="preserve" style="fill:rgb(0%,0%,0%);fill-opacity:1;">
  <use xlink:href="#tmb87c6f-21" x="94.444439" y="53.019524"/>
</g>
<g xml:space="preserve" style="fill:rgb(0%,0%,0%);fill-opacity:1;">
  <use
xlink:href="#tmb87c6f-16" x="80.051773" y="61.821651"/>
</g>
<g xml:space="preserve" style="fill:rgb(0%,0%,0%);fill-opacity:1;">
  <use xlink:href="#tmb87c6f-17" x="84.571784" y="61.821651"/>
</g>
<g
xml:space="preserve" style="fill:rgb(0%,0%,0%);fill-opacity:1;">
  <use xlink:href="#tmb87c6f-22" x="99.797084" y="58.847959"/>
</g>
<g xml:space="preserve" style="fill:rgb(0%,0%,0%);fill-opacity:1;">
  <use
xlink:href="#tmb87c6f-16" x="91.3518" y="66.9364"/>
</g>
<g xml:space="preserve" style="fill:rgb(0%,0%,0%);fill-opacity:1;">
  <use xlink:href="#tmb87c6f-17" x="95.871811" y="66.9364"/>
</g>
<g
xml:space="preserve" style="fill:rgb(0%,0%,0%);fill-opacity:1;">
  <use xlink:href="#tmb87c6f-24" x="105.744467" y="66.9364"/>
</g>
<g xml:space="preserve" style="fill:rgb(0%,0%,0%);fill-opacity:1;">
  <use
xlink:href="#tmb87c6f-24" x="102.413932" y="64.319552"/>
</g>
<g xml:space="preserve" style="fill:rgb(0%,0%,0%);fill-opacity:1;">
  <use xlink:href="#tmb87c6f-24" x="109.075001" y="69.553249"/>
</g>
<path
style="fill:none;stroke-width:3;stroke-linecap:round;stroke-linejoin:round;stroke:rgb(0%,0%,0%);stroke-opacity:1;stroke-miterlimit:10;" d="M 765.994756 82.99139 L 940.999517 82.99139 " transform="matrix(0.118948,0,0,-0.118948,0,70.742725)"/>
<path style="fill:none;stroke-width:3;stroke-linecap:round;stroke-linejoin:round;stroke:rgb(0%,0%,0%);stroke-opacity:1;stroke-miterlimit:10;" d="M 670.988418 133.006825 L 945.006006 133.006825 " transform="matrix(0.118948,0,0,-0.118948,0,70.742725)"/>
<path style="fill:none;stroke-width:3;stroke-linecap:round;stroke-linejoin:round;stroke:rgb(0%,0%,0%);stroke-opacity:1;stroke-miterlimit:10;" d="M 576.014921 182.004217 L 949.012496 182.004217 " transform="matrix(0.118948,0,0,-0.118948,0,70.742725)"/>
<path
style="fill:none;stroke-width:3;stroke-linecap:round;stroke-linejoin:round;stroke:rgb(0%,0%,0%);stroke-opacity:1;stroke-miterlimit:10;" d="M 481.008583 231.001609 L 952.986145 231.001609 " transform="matrix(0.118948,0,0,-0.118948,0,70.742725)"/>
<path style="fill:none;stroke-width:3;stroke-linecap:round;stroke-linejoin:round;stroke:rgb(0%,0%,0%);stroke-opacity:1;stroke-miterlimit:10;" d="M 386.002245 279.999002 L 956.992634 279.999002 " transform="matrix(0.118948,0,0,-0.118948,0,70.742725)"/>
<path style="fill:none;stroke-width:3;stroke-linecap:round;stroke-linejoin:round;stroke:rgb(0%,0%,0%);stroke-opacity:1;stroke-miterlimit:10;" d="M 290.010705 330.999639 L 961.984325 330.999639 " transform="matrix(0.118948,0,0,-0.118948,0,70.742725)"/>
<path
style="fill:none;stroke-width:4;stroke-linecap:round;stroke-linejoin:round;stroke:rgb(0%,0%,0%);stroke-opacity:1;stroke-miterlimit:10;" d="M 175.989963 386.006765 L 969.012101 386.006765 " transform="matrix(0.118948,0,0,-0.118948,0,70.742725)"/>
<path style="fill:none;stroke-width:4;stroke-linecap:round;stroke-linejoin:round;stroke:rgb(0%,0%,0%);stroke-opacity:1;stroke-miterlimit:10;" d="M 33.004276 459.010252 L 978.010282 459.010252 " transform="matrix(0.118948,0,0,-0.118948,0,70.742725)"/>
<g xml:space="preserve" style="fill:rgb(0%,0%,0%);fill-opacity:1;">
  <use
xlink:href="#tmb87c6f-3" x="123.34872" y="18.405756"/>
</g>
<g xml:space="preserve" style="fill:rgb(0%,0%,0%);fill-opacity:1;">
  <use xlink:href="#tmb87c6f-26" x="148.565623" y="12.458373"/>
</g>
<g
xml:space="preserve" style="fill:rgb(0%,0%,100%);fill-opacity:1;">
  <use xlink:href="#tmb87c6f-27" x="155.940378" y="12.458373"/>
</g>
<g xml:space="preserve" style="fill:rgb(0%,0%,0%);fill-opacity:1;">
  <use
xlink:href="#tmb87c6f-4" x="152.134053" y="24.82893"/>
</g>
<path style="fill:none;stroke-width:4;stroke-linecap:round;stroke-linejoin:round;stroke:rgb(0%,0%,0%);stroke-opacity:1;stroke-miterlimit:10;" d="M 1245.000094 459.010252 L 1353.996304 459.010252 " transform="matrix(0.118948,0,0,-0.118948,0,70.742725)"/>
<g xml:space="preserve" style="fill:rgb(0%,0%,0%);fill-opacity:1;">
  <use
xlink:href="#tmb87c6f-30" x="137.741386" y="4.607828"/>
</g>
<path style="fill:none;stroke-width:4;stroke-linecap:round;stroke-linejoin:round;stroke:rgb(0%,0%,0%);stroke-opacity:1;stroke-miterlimit:10;" d="M 1238.99036 557.005037 L 1358.002793 557.005037 " transform="matrix(0.118948,0,0,-0.118948,0,70.742725)"/>
<g xml:space="preserve" style="fill:rgb(0%,0%,0%);fill-opacity:1;">
  <use
xlink:href="#tmb87c6f-31" x="163.196185" y="7.343624"/>
</g>
<g xml:space="preserve" style="fill:rgb(0%,0%,0%);fill-opacity:1;">
  <use xlink:href="#tmb87c6f-1" x="169.976201" y="18.405756"/>
</g>
<g
xml:space="preserve" style="fill:rgb(0%,0%,0%);fill-opacity:1;">
  <use xlink:href="#tmb87c6f-37" x="176.518322" y="18.405756"/>
</g>
<g xml:space="preserve" style="fill:rgb(0%,0%,0%);fill-opacity:1;">
  <use
xlink:href="#tmb87c6f-40" x="185.915187" y="18.405756"/>
</g>
<g xml:space="preserve" style="fill:rgb(0%,0%,0%);fill-opacity:1;">
  <use xlink:href="#tmb87c6f-41" x="190.316251" y="18.405756"/>
</g>
<g
xml:space="preserve" style="fill:rgb(0%,0%,0%);fill-opacity:1;">
  <use xlink:href="#tmb87c6f-42" x="194.241523" y="18.405756"/>
</g>
<g xml:space="preserve" style="fill:rgb(0%,0%,0%);fill-opacity:1;">
  <use
xlink:href="#tmb87c6f-9" x="203.281545" y="13.172059"/>
</g>
<g xml:space="preserve" style="fill:rgb(0%,0%,0%);fill-opacity:1;">
  <use xlink:href="#tmb87c6f-11" x="206.374184" y="23.401558"/>
</g>
<g
xml:space="preserve" style="fill:rgb(0%,0%,0%);fill-opacity:1;">
  <use xlink:href="#tmb87c6f-44" x="199.832063" y="18.167861"/>
</g>
<path style="fill:none;stroke-width:3;stroke-linecap:round;stroke-linejoin:round;stroke:rgb(0%,0%,0%);stroke-opacity:1;stroke-miterlimit:10;" d="M 1733.003613 442.984295 L 1768.011133 442.984295 " transform="matrix(0.118948,0,0,-0.118948,0,70.742725)"/>
<path
style="fill:none;stroke-width:4;stroke-linecap:round;stroke-linejoin:round;stroke:rgb(0%,0%,0%);stroke-opacity:1;stroke-miterlimit:10;" d="M 1675.993242 459.010252 L 1775.006069 459.010252 " transform="matrix(0.118948,0,0,-0.118948,0,70.742725)"/>
<g xml:space="preserve" style="fill:rgb(0%,0%,0%);fill-opacity:1;">
  <use xlink:href="#tmb87c6f-32" x="212.67841" y="7.343624"/>
</g>
<g
xml:space="preserve" style="fill:rgb(0%,0%,0%);fill-opacity:1;">
  <use xlink:href="#tmb87c6f-3" x="219.577374" y="18.405756"/>
</g>
<g xml:space="preserve" style="fill:rgb(0%,0%,0%);fill-opacity:1;">
  <use
xlink:href="#tmb87c6f-27" x="237.181627" y="18.405756"/>
</g>
<g xml:space="preserve" style="fill:rgb(0%,0%,0%);fill-opacity:1;">
  <use xlink:href="#tmb87c6f-38" x="228.974239" y="11.62574"/>
</g>
<path
style="fill:none;stroke-width:4;stroke-linecap:round;stroke-linejoin:round;stroke:rgb(0%,0%,0%);stroke-opacity:1;stroke-miterlimit:10;" d="M 1992.013287 497.991422 L 2032.997701 497.991422 " transform="matrix(0.118948,0,0,-0.118948,0,70.742725)"/>
<g xml:space="preserve" style="fill:rgb(0%,0%,0%);fill-opacity:1;">
  <use xlink:href="#tmb87c6f-33" x="243.842696" y="1.396241"/>
</g>
<g
xml:space="preserve" style="fill:rgb(0%,0%,0%);fill-opacity:1;">
  <use xlink:href="#tmb87c6f-26" x="262.398531" y="12.458373"/>
</g>
<g xml:space="preserve" style="fill:rgb(0%,0%,0%);fill-opacity:1;">
  <use
xlink:href="#tmb87c6f-4" x="262.755374" y="24.82893"/>
</g>
<path style="fill:none;stroke-width:4;stroke-linecap:round;stroke-linejoin:round;stroke:rgb(0%,0%,0%);stroke-opacity:1;stroke-miterlimit:10;" d="M 2201.992728 459.010252 L 2257.985056 459.010252 " transform="matrix(0.118948,0,0,-0.118948,0,70.742725)"/>
<g xml:space="preserve" style="fill:rgb(0%,0%,0%);fill-opacity:1;">
  <use
xlink:href="#tmb87c6f-30" x="251.574294" y="4.607828"/>
</g>
<path style="fill:none;stroke-width:4;stroke-linecap:round;stroke-linejoin:round;stroke:rgb(0%,0%,0%);stroke-opacity:1;stroke-miterlimit:10;" d="M 2196.015834 557.005037 L 2261.991546 557.005037 " transform="matrix(0.118948,0,0,-0.118948,0,70.742725)"/>
<g xml:space="preserve" style="fill:rgb(0%,0%,0%);fill-opacity:1;">
  <use
xlink:href="#tmb87c6f-37" x="271.200657" y="18.405756"/>
</g>
<g xml:space="preserve" style="fill:rgb(0%,0%,0%);fill-opacity:1;">
  <use xlink:href="#tmb87c6f-34" x="281.19226" y="9.246787"/>
</g>
<g
xml:space="preserve" style="fill:rgb(0%,0%,0%);fill-opacity:1;">
  <use xlink:href="#tmb87c6f-47" x="280.597522" y="30.062627"/>
</g>
<g xml:space="preserve" style="fill:rgb(0%,0%,0%);fill-opacity:1;">
  <use
xlink:href="#tmb87c6f-12" x="285.831219" y="30.062627"/>
</g>
<g xml:space="preserve" style="fill:rgb(0%,0%,0%);fill-opacity:1;">
  <use xlink:href="#tmb87c6f-13" x="292.254392" y="30.062627"/>
</g>
<g
xml:space="preserve" style="fill:rgb(0%,0%,0%);fill-opacity:1;">
  <use xlink:href="#tmb87c6f-45" x="284.403847" y="6.154148"/>
</g>
<g xml:space="preserve" style="fill:rgb(0%,0%,0%);fill-opacity:1;">
  <use
xlink:href="#tmb87c6f-5" x="316.876557" y="12.458373"/>
</g>
<g xml:space="preserve" style="fill:rgb(0%,0%,0%);fill-opacity:1;">
  <use xlink:href="#tmb87c6f-37" x="320.80183" y="12.458373"/>
</g>
<g
xml:space="preserve" style="fill:rgb(0%,0%,0%);fill-opacity:1;">
  <use xlink:href="#tmb87c6f-1" x="328.41448" y="12.458373"/>
</g>
<g xml:space="preserve" style="fill:rgb(0%,0%,0%);fill-opacity:1;">
  <use
xlink:href="#tmb87c6f-6" x="333.410282" y="12.458373"/>
</g>
<g xml:space="preserve" style="fill:rgb(0%,0%,0%);fill-opacity:1;">
  <use xlink:href="#tmb87c6f-47" x="337.454502" y="8.889944"/>
</g>
<g
xml:space="preserve" style="fill:rgb(0%,0%,0%);fill-opacity:1;">
  <use xlink:href="#tmb87c6f-4" x="300.461781" y="24.82893"/>
</g>
<g xml:space="preserve" style="fill:rgb(0%,0%,0%);fill-opacity:1;">
  <use
xlink:href="#tmb87c6f-47" x="305.57653" y="21.974186"/>
</g>
<g xml:space="preserve" style="fill:rgb(0%,0%,0%);fill-opacity:1;">
  <use xlink:href="#tmb87c6f-28" x="312.118651" y="24.82893"/>
</g>
<g
xml:space="preserve" style="fill:rgb(0%,0%,0%);fill-opacity:1;">
  <use xlink:href="#tmb87c6f-7" x="318.066034" y="24.82893"/>
</g>
<g xml:space="preserve" style="fill:rgb(0%,0%,0%);fill-opacity:1;">
  <use
xlink:href="#tmb87c6f-5" x="322.467097" y="24.82893"/>
</g>
<g xml:space="preserve" style="fill:rgb(0%,0%,0%);fill-opacity:1;">
  <use xlink:href="#tmb87c6f-4" x="326.39237" y="24.82893"/>
</g>
<g
xml:space="preserve" style="fill:rgb(0%,0%,0%);fill-opacity:1;">
  <use xlink:href="#tmb87c6f-28" x="332.934491" y="24.82893"/>
</g>
<g xml:space="preserve" style="fill:rgb(0%,0%,0%);fill-opacity:1;">
  <use
xlink:href="#tmb87c6f-2" x="340.547141" y="24.82893"/>
</g>
<g xml:space="preserve" style="fill:rgb(0%,0%,0%);fill-opacity:1;">
  <use xlink:href="#tmb87c6f-1" x="349.944006" y="24.82893"/>
</g>
<g
xml:space="preserve" style="fill:rgb(0%,0%,0%);fill-opacity:1;">
  <use xlink:href="#tmb87c6f-6" x="354.82086" y="24.82893"/>
</g>
<path style="fill:none;stroke-width:4;stroke-linecap:round;stroke-linejoin:round;stroke:rgb(0%,0%,0%);stroke-opacity:1;stroke-miterlimit:10;" d="M 2521.986422 459.010252 L 3020.006163 459.010252 " transform="matrix(0.118948,0,0,-0.118948,0,70.742725)"/>
<g
xml:space="preserve" style="fill:rgb(0%,0%,0%);fill-opacity:1;">
  <use xlink:href="#tmb87c6f-35" x="359.578766" y="1.396241"/>
</g>
</g>
</svg>


